HIERARCHY
ROOT Pelvis
{
	OFFSET 0.000000 0.000000 0.000000
	CHANNELS 6 Xposition Yposition Zposition Xrotation Yrotation Zrotation
	JOINT LeftUpLeg_virtual
	{
		OFFSET 0.000000 0.000000 0.000000
		CHANNELS 3 Xrotation Yrotation Zrotation
		JOINT LeftUpLeg
		{
			OFFSET 8.479700 -4.795502 -0.379100
			CHANNELS 3 Xrotation Yrotation Zrotation
			JOINT LeftLeg
			{
				OFFSET 0.024144 -32.555107 0.112900
				CHANNELS 3 Xrotation Yrotation Zrotation
				JOINT LeftFoot
				{
					OFFSET -0.024144 -32.638630 -3.012600
					CHANNELS 3 Xrotation Yrotation Zrotation
					JOINT LeftToeBase
					{
						OFFSET 0.970200 -13.225400 11.864200
						CHANNELS 3 Xrotation Yrotation Zrotation
						End Site
						{
							OFFSET 0 0 0
						}
					}
				}
			}
		}
	}
	JOINT RightUpLeg_virtual
	{
		OFFSET 0.000000 0.000000 0.000000
		CHANNELS 3 Xrotation Yrotation Zrotation
		JOINT RightUpLeg
		{
			OFFSET -8.479700 -4.795502 -0.379100
			CHANNELS 3 Xrotation Yrotation Zrotation
			JOINT RightLeg
			{
				OFFSET -0.023144 -32.555092 0.112900
				CHANNELS 3 Xrotation Yrotation Zrotation
				JOINT RightFoot
				{
					OFFSET 0.023144 -32.638641 -3.012700
					CHANNELS 3 Xrotation Yrotation Zrotation
					JOINT RightToeBase
					{
						OFFSET -0.970200 -13.225400 11.864200
						CHANNELS 3 Xrotation Yrotation Zrotation
						End Site
						{
							OFFSET 0 0 0
						}
					}
				}
			}
		}
	}
	JOINT Hips_virtual
	{
		OFFSET 0.000000 0.000000 0.000000
		CHANNELS 3 Xrotation Yrotation Zrotation
		JOINT Hips
		{
			OFFSET -0.000000 -0.000000 -0.000000
			CHANNELS 3 Xrotation Yrotation Zrotation
			JOINT Spine
			{
				OFFSET 0.000000 7.722000 1.166200
				CHANNELS 3 Xrotation Yrotation Zrotation
				JOINT Spine1
				{
					OFFSET 0.000000 12.024101 0.248800
					CHANNELS 3 Xrotation Yrotation Zrotation
					JOINT Spine2
					{
						OFFSET 0.000000 11.502998 -0.491200
						CHANNELS 3 Xrotation Yrotation Zrotation
						JOINT Neck_virtual
						{
							OFFSET 0.000000 0.000000 0.000000
							CHANNELS 3 Xrotation Yrotation Zrotation
							JOINT Neck
							{
								OFFSET 0.000000 18.430702 -3.123100
								CHANNELS 3 Xrotation Yrotation Zrotation
								JOINT Head
								{
									OFFSET 0.000000 9.051102 1.034000
									CHANNELS 3 Xrotation Yrotation Zrotation
									End Site
									{
										OFFSET 0 0 0
									}
								}
							}
						}
						JOINT LeftShoulder_virtual
						{
							OFFSET 0.000000 0.000000 0.000000
							CHANNELS 3 Xrotation Yrotation Zrotation
							JOINT LeftShoulder
							{
								OFFSET 6.197800 13.665199 -4.064700
								CHANNELS 3 Xrotation Yrotation Zrotation
								JOINT LeftArm
								{
									OFFSET 7.778100 -0.187103 -1.709300
									CHANNELS 3 Xrotation Yrotation Zrotation
									JOINT LeftForeArm
									{
										OFFSET 22.049376 0.000000 0.000000
										CHANNELS 3 Xrotation Yrotation Zrotation
										JOINT LeftHand
										{
											OFFSET 23.009392 0.000000 0.000000
											CHANNELS 3 Xrotation Yrotation Zrotation
											End Site
											{
												OFFSET 0 0 0
											}
										}
									}
								}
							}
						}
						JOINT RightShoulder_virtual
						{
							OFFSET 0.000000 0.000000 0.000000
							CHANNELS 3 Xrotation Yrotation Zrotation
							JOINT RightShoulder
							{
								OFFSET -6.197800 13.665199 -4.064700
								CHANNELS 3 Xrotation Yrotation Zrotation
								JOINT RightArm
								{
									OFFSET -7.778100 -0.187103 -1.709300
									CHANNELS 3 Xrotation Yrotation Zrotation
									JOINT RightForeArm
									{
										OFFSET -22.049376 0.000000 0.000000
										CHANNELS 3 Xrotation Yrotation Zrotation
										JOINT RightHand
										{
											OFFSET -23.009392 0.000000 0.000000
											CHANNELS 3 Xrotation Yrotation Zrotation
											End Site
											{
												OFFSET 0 0 0
											}
										}
									}
								}
							}
						}
					}
				}
			}
		}
	}
}
MOTION
Frames: 10
Frame Time: 0.03333333
0.577900 71.727142 0.140409 0.000000 0.000000 0.000000 10.602435 67.300641 -12.417207 -18.644671 0.585359 20.339643 51.338202 -6.322689 10.017254 -32.962954 4.316786 -13.504209 0.000000 0.000000 0.000000 10.602435 67.300641 -12.417207 -34.100679 6.229384 -15.568557 47.060762 8.681264 -6.516840 -18.966771 1.500135 20.070134 0.000000 0.000000 0.000000 10.602435 67.300641 -12.417207 0.000000 0.000001 0.000000 1.872634 -1.981221 0.657623 2.147805 -0.574862 -0.033124 0.000000 0.000000 0.000000 2.136795 -0.620520 -0.146674 -4.452903 -10.379965 0.183234 0.000000 0.000000 0.000000 2.136795 -0.620520 -0.146674 1.127385 -10.640382 -5.486604 -1.802088 -47.065437 -47.163146 -179.999855 -73.678125 -179.999827 0.000000 0.000000 0.000000 2.136795 -0.620520 -0.146674 0.469309 -2.168326 7.105745 -29.988376 -15.739978 41.708396 -179.999950 70.652829 179.999950 0.000000 0.000000 0.000000 
0.791976 73.042122 -0.083429 0.000000 0.000000 0.000000 9.107641 65.581496 -10.744326 -17.038967 2.664906 19.658608 48.242774 -6.201147 10.229305 -29.359298 4.071516 -13.713101 0.000000 0.000000 0.000000 9.107641 65.581496 -10.744326 -32.343101 5.335430 -15.938153 41.655384 8.722340 -6.537183 -15.082231 4.649919 21.387149 0.000000 0.000000 0.000000 9.107641 65.581496 -10.744326 0.000000 0.000001 0.000000 1.933162 -2.266331 0.506156 2.196508 -0.669186 -0.093634 0.000000 0.000000 0.000000 2.178838 -0.721588 -0.214625 -4.181044 -10.086965 0.380455 0.000000 0.000000 0.000000 2.178838 -0.721588 -0.214625 1.159394 -10.584912 -4.968926 -3.440713 -46.440474 -48.700540 -179.999950 -72.977744 -179.999950 0.000000 0.000000 0.000000 2.178838 -0.721588 -0.214625 0.472923 -1.987577 7.167157 -29.704807 -14.959984 41.837801 -179.999827 69.760376 179.999827 0.000000 0.000000 0.000000 
1.026897 74.496498 -0.307655 0.000000 0.000000 0.000000 7.885773 63.573891 -9.310631 -15.541667 4.700903 18.920070 45.036717 -5.860300 10.234762 -24.799869 3.674874 -13.814536 0.000000 0.000000 0.000000 7.885773 63.573891 -9.310631 -30.257803 4.291101 -16.128455 35.222616 8.740564 -6.557910 -10.477698 7.872526 22.302665 0.000000 0.000000 0.000000 7.885773 63.573891 -9.310631 0.000000 -0.000001 0.000000 1.876086 -2.534903 0.292266 2.147878 -0.743391 -0.181095 0.000000 0.000000 0.000000 2.123235 -0.800160 -0.306784 -3.798645 -9.756331 0.643418 0.000000 0.000000 0.000000 2.123235 -0.800160 -0.306784 1.197097 -10.412342 -4.302574 -5.193336 -45.854246 -50.234119 179.999937 -72.243983 179.999950 0.000000 0.000000 0.000000 2.123235 -0.800160 -0.306784 0.488558 -1.683401 7.375539 -29.457202 -13.864258 41.538185 -179.999827 68.998346 179.999827 0.000000 0.000000 0.000000 
1.333952 76.389168 -0.534534 0.000000 0.000000 0.000000 7.062132 60.811401 -8.217051 -14.214070 6.800915 18.186897 41.316839 -5.039350 9.604376 -17.857063 2.867890 -13.749476 0.000000 0.000000 0.000000 7.062132 60.811401 -8.217051 -27.256739 2.842754 -15.598965 25.867328 8.537210 -7.068620 -4.034218 11.893452 22.597293 0.000000 0.000000 0.000000 7.062132 60.811401 -8.217051 0.000000 -0.000001 0.000000 1.463870 -2.768776 -0.064835 1.806340 -0.774962 -0.347969 0.000000 0.000000 0.000000 1.773440 -0.829132 -0.471257 -3.055413 -9.319751 1.116650 0.000000 0.000000 0.000000 1.773440 -0.829132 -0.471257 1.239730 -9.854035 -3.184284 -7.337286 -45.581452 -51.880338 -179.999909 -71.481597 -179.999896 0.000000 0.000000 0.000000 1.773440 -0.829132 -0.471257 0.528484 -1.104070 8.063765 -29.166520 -11.793689 40.000265 -179.999950 68.632965 179.999978 0.000000 0.000000 0.000000 
1.628333 78.312721 -0.741945 0.000000 0.000000 0.000000 6.501341 57.620432 -7.195943 -13.523419 8.407726 17.261929 38.183100 -3.717170 8.787762 -8.989563 1.758116 -13.530846 0.000000 0.000000 0.000000 6.501341 57.620432 -7.195943 -25.447255 1.793948 -15.398890 17.456024 8.795682 -5.987228 5.942088 15.638859 20.591986 0.000000 0.000000 0.000000 6.501341 57.620432 -7.195943 0.000000 -0.000002 0.000000 0.939813 -2.962405 -0.578422 1.369297 -0.750838 -0.544705 0.000000 0.000000 0.000000 1.328521 -0.799762 -0.660571 -2.260077 -8.831631 1.629503 0.000000 0.000000 0.000000 1.328521 -0.799762 -0.660571 1.264991 -9.251285 -1.937964 -9.747286 -45.080977 -53.432894 -179.999868 -70.543129 -179.999855 0.000000 0.000000 0.000000 1.328521 -0.799762 -0.660571 0.565215 -0.209072 8.822584 -28.956833 -9.525896 37.940536 -179.999950 68.387173 179.999964 0.000000 0.000000 0.000000 
1.850552 79.949883 -0.898577 0.000000 0.000000 0.000000 6.164129 54.088480 -5.913626 -13.272354 9.158974 15.685219 35.831302 -1.220321 7.965537 0.859381 0.578562 -12.773852 0.000000 0.000000 0.000000 6.164129 54.088480 -5.913626 -23.961547 0.664991 -15.039443 9.635951 9.663148 -5.086330 16.704686 15.964017 17.577743 0.000000 0.000000 0.000000 6.164129 54.088480 -5.913626 0.000000 -0.000003 0.000000 0.403378 -3.127574 -1.471129 0.914911 -0.628415 -0.788937 0.000000 0.000000 0.000000 0.866378 -0.672015 -0.890109 -1.581216 -8.317156 2.100081 0.000000 0.000000 0.000000 0.866378 -0.672015 -0.890109 1.300961 -8.970240 -0.631256 -12.531143 -43.686354 -54.856770 -179.999978 -69.087739 -179.999950 0.000000 0.000000 0.000000 0.866378 -0.672015 -0.890109 0.594284 1.293019 9.366182 -29.095236 -7.715557 35.699254 -179.999868 68.025467 179.999882 0.000000 0.000000 0.000000 
2.035112 81.567276 -1.130838 0.000000 0.000000 0.000000 5.846102 50.428284 -4.865858 -12.904559 9.426469 14.088740 32.992863 0.857217 6.879440 11.841685 -0.600807 -10.918715 0.000000 0.000000 0.000000 5.846102 50.428284 -4.865858 -24.960173 0.096942 -14.809706 9.229783 9.667481 -4.134715 18.772348 12.920164 15.291588 0.000000 0.000000 0.000000 5.846102 50.428284 -4.865858 0.000000 0.000000 0.000000 0.055333 -3.153092 -1.966932 0.605336 -0.473783 -0.931584 0.000000 0.000000 0.000000 0.553924 -0.512494 -1.019415 -1.188954 -7.795700 2.406637 0.000000 0.000000 0.000000 0.553924 -0.512494 -1.019415 1.307744 -8.658854 0.291261 -14.937101 -42.074614 -55.476880 -179.999978 -67.700138 -179.999950 0.000000 0.000000 0.000000 0.553924 -0.512494 -1.019415 0.601169 2.797498 9.668301 -29.462359 -5.853201 33.684417 -179.999964 67.689879 179.999964 0.000000 0.000000 0.000000 
2.206364 83.428162 -1.596264 0.000000 0.000000 0.000000 5.427142 46.836199 -4.756229 -12.248291 9.053481 12.953373 29.644988 1.784001 5.790844 22.419560 -1.235321 -7.938692 0.000000 0.000000 0.000000 5.427142 46.836199 -4.756229 -25.272559 -1.483933 -13.963039 9.751549 9.882106 -2.954990 17.687437 7.121545 13.302095 0.000000 0.000000 0.000000 5.427142 46.836199 -4.756229 0.000000 0.000001 0.000000 0.199685 -2.882047 -1.033156 0.677079 -0.359046 -0.760396 0.000000 0.000000 0.000000 0.634979 -0.394212 -0.845322 -1.444345 -7.287865 2.332292 0.000000 0.000000 0.000000 0.634979 -0.394212 -0.845322 1.237536 -8.029400 0.156059 -16.251320 -40.835392 -54.427349 -179.999964 -66.891089 -179.999964 0.000000 0.000000 0.000000 0.634979 -0.394212 -0.845322 0.600730 3.760738 9.460538 -30.115540 -3.619614 32.551442 179.999991 67.373088 179.999978 0.000000 0.000000 0.000000 
2.340439 85.223396 -2.090237 0.000000 0.000000 0.000000 4.815793 43.438627 -4.818529 -13.764558 7.891839 12.343906 32.287056 3.482250 5.580692 25.458249 -1.226919 -6.648397 0.000000 0.000000 0.000000 4.815793 43.438627 -4.818529 -25.405261 -3.267653 -13.103618 11.825994 9.713593 -1.782655 14.963406 1.637477 11.393181 0.000000 0.000000 0.000000 4.815793 43.438627 -4.818529 0.000000 -0.000002 0.000000 0.618046 -2.466274 0.247115 0.985248 -0.223874 -0.482493 0.000000 0.000000 0.000000 0.956668 -0.257982 -0.571312 -1.943179 -6.815083 2.080529 0.000000 0.000000 0.000000 0.956668 -0.257982 -0.571312 1.144505 -7.246879 -0.418776 -17.263583 -39.941249 -52.918735 -179.999964 -66.541356 -179.999950 0.000000 0.000000 0.000000 0.956668 -0.257982 -0.571312 0.608120 4.290602 9.147271 -30.800697 -1.171628 31.921661 179.999991 67.287643 -180.000005 0.000000 0.000000 0.000000 
2.400083 86.715538 -2.462736 0.000000 0.000000 0.000000 3.795975 40.537340 -4.491271 -16.198366 6.863433 11.993378 37.717906 3.160302 5.182694 25.343654 -1.091017 -5.857957 0.000000 0.000000 0.000000 3.795975 40.537340 -4.491271 -25.694746 -4.666860 -12.760772 16.567968 7.986491 -0.840709 11.195008 0.248223 9.420515 0.000000 0.000000 0.000000 3.795975 40.537340 -4.491271 0.000000 0.000002 0.000000 1.259355 -2.011572 1.100016 1.522111 -0.029868 -0.214676 0.000000 0.000000 0.000000 1.506044 -0.068332 -0.316205 -2.481850 -6.415347 1.751282 0.000000 0.000000 0.000000 1.506044 -0.068332 -0.316205 1.038702 -6.295074 -1.143578 -18.403639 -39.611826 -51.670531 179.999964 -66.788936 179.999950 0.000000 0.000000 0.000000 1.506044 -0.068332 -0.316205 0.607439 4.138768 9.089523 -31.306418 1.554763 31.603360 -179.999964 67.644486 179.999964 0.000000 0.000000 0.000000 
